Coordinates
version=1
nRows=16
nColumns=63
inDegrees=yes

Units are S.I. units (second, meters, Newtons, ...)
If the header above contains a line with 'inDegrees', this indicates whether rotational values are in degrees (yes) or radians (no).

endheader
time	pelvis_tilt	pelvis_list	pelvis_rotation	pelvis_tx	pelvis_ty	pelvis_tz	hip_flexion_r	hip_adduction_r	hip_rotation_r	knee_angle_r	knee_angle_r_beta	ankle_angle_r	subtalar_angle_r	mtp_angle_r	hip_flexion_l	hip_adduction_l	hip_rotation_l	knee_angle_l	knee_angle_l_beta	ankle_angle_l	subtalar_angle_l	mtp_angle_l	L5_S1_Flex_Ext	L5_S1_Lat_Bending	L5_S1_axial_rotation	L4_L5_Flex_Ext	L4_L5_Lat_Bending	L4_L5_axial_rotation	L3_L4_Flex_Ext	L3_L4_Lat_Bending	L3_L4_axial_rotation	L2_L3_Flex_Ext	L2_L3_Lat_Bending	L2_L3_axial_rotation	L1_L2_Flex_Ext	L1_L2_Lat_Bending	L1_L2_axial_rotation	L1_T12_Flex_Ext	L1_T12_Lat_Bending	L1_T12_axial_rotation	Abs_r3	Abs_r2	Abs_r1	Abs_t1	Abs_t2	neck_flexion	neck_bending	neck_rotation	arm_flex_r	arm_add_r	arm_rot_r	elbow_flex_r	pro_sup_r	wrist_flex_r	wrist_dev_r	arm_flex_l	arm_add_l	arm_rot_l	elbow_flex_l	pro_sup_l	wrist_flex_l	wrist_dev_l
6.152542	8.477490	-6.345027	93.274532	0.194870	0.892421	0.565044	1.672729	2.766494	-8.675043	4.348414	0.075894	25.821625	13.178908	0.000000	1.730673	-5.324717	8.043525	1.215406	0.021213	25.460260	-2.761476	0.000000	-0.275919	0.748404	-0.326637	-0.512409	0.995378	-0.347052	-0.453307	1.819670	-0.347052	-0.315348	1.819670	-0.285808	-0.256218	1.526146	-0.265393	-0.157660	1.159278	-0.244978	-1.970861	8.466099	-1.816658	0.000000	0.000000	14.178161	-5.614224	29.394331	1.281829	-22.339962	47.585027	22.766948	65.124497	-3.844623	-3.422236	11.704702	-13.247050	147.803604	12.358253	28.059057	-13.868579	-3.870584
6.169492	8.653529	-6.291696	93.690985	0.193792	0.892040	0.564662	1.553638	2.917863	-9.296984	4.317453	0.075354	25.841111	13.441495	0.000000	1.679905	-5.445455	8.586425	1.119161	0.019533	25.544035	-3.045313	0.000000	-0.268241	0.789657	-0.420531	-0.498151	1.050243	-0.446814	-0.440694	1.919971	-0.446814	-0.306573	1.919971	-0.367964	-0.249089	1.610268	-0.341681	-0.153273	1.223178	-0.315398	-1.916021	8.932752	-2.338866	0.000000	0.000000	13.291119	-5.504484	29.540021	1.059659	-22.518498	46.706098	22.747653	63.442303	-3.684798	-3.478978	11.650506	-13.302580	147.776467	11.763125	30.749941	-13.974193	-3.912852
6.186441	8.850268	-6.192971	94.044896	0.192909	0.891655	0.564214	1.390038	3.100408	-9.833775	4.290678	0.074886	25.889829	13.693273	0.000000	1.575916	-5.598283	9.049055	1.021294	0.017825	25.686004	-3.317457	0.000000	-0.263086	0.832667	-0.505732	-0.488577	1.107447	-0.537340	-0.432224	2.024546	-0.537340	-0.300681	2.024546	-0.442516	-0.244301	1.697974	-0.410907	-0.150327	1.289801	-0.379299	-1.879195	9.419294	-2.812730	0.000000	0.000000	12.307585	-5.382305	29.641168	0.817755	-22.681024	45.730077	22.716119	61.670209	-3.562877	-3.499933	11.537959	-13.457104	146.544738	11.198683	32.945378	-13.518599	-3.890570
6.203390	9.057153	-6.059807	94.333436	0.192263	0.891267	0.563760	1.209863	3.303307	-10.275825	4.294744	0.074957	25.976380	13.899967	0.000000	1.436671	-5.777647	9.419607	0.926369	0.016168	25.880940	-3.536256	0.000000	-0.261337	0.874524	-0.577349	-0.485330	1.163117	-0.613433	-0.429351	2.126318	-0.613433	-0.298683	2.126318	-0.505181	-0.242678	1.783330	-0.469096	-0.149328	1.354638	-0.433012	-1.866707	9.892794	-3.211043	0.000000	0.000000	11.274103	-5.227389	29.595172	0.569966	-22.828487	44.746537	22.670365	59.931168	-3.553833	-3.515581	11.380983	-13.744708	144.184458	10.724432	34.520555	-12.572060	-3.875910
6.220339	9.265738	-5.902134	94.575258	0.191840	0.890876	0.563300	1.014043	3.519058	-10.592029	4.308091	0.075190	26.090579	14.047718	0.000000	1.275071	-5.975625	9.690465	0.832901	0.014537	26.121686	-3.675725	0.000000	-0.261719	0.913579	-0.632674	-0.486038	1.215060	-0.672216	-0.429978	2.221276	-0.672216	-0.299118	2.221276	-0.553589	-0.243032	1.862970	-0.514047	-0.149546	1.415134	-0.474505	-1.869431	10.334588	-3.518741	0.000000	0.000000	10.242036	-5.102953	29.323874	0.291218	-22.965069	43.769560	22.617022	58.071091	-3.625762	-3.538500	11.184946	-14.128380	140.884429	10.247583	35.574946	-11.094482	-3.845185
6.237288	9.454956	-5.729922	94.750715	0.191672	0.890499	0.562904	0.828124	3.720845	-10.792280	4.365768	0.076197	26.235672	14.133470	0.000000	1.102475	-6.171628	9.835950	0.749346	0.013079	26.385919	-3.714449	0.000000	-0.265866	0.946796	-0.670128	-0.493740	1.259239	-0.712011	-0.436791	2.302040	-0.712011	-0.303858	2.302040	-0.586362	-0.246883	1.930707	-0.544479	-0.151916	1.466587	-0.502596	-1.899054	10.710347	-3.727050	0.000000	0.000000	9.236254	-4.952042	28.886856	0.019904	-23.088107	42.866981	22.541424	56.420331	-3.857412	-3.585294	10.934589	-14.660808	136.642739	9.884667	35.945873	-9.283621	-3.916637
6.254237	9.625100	-5.539177	94.859995	0.191695	0.890174	0.562660	0.653130	3.907083	-10.886410	4.473460	0.078077	26.358150	14.126689	0.000000	0.920845	-6.362208	9.835158	0.685308	0.011961	26.646556	-3.638327	0.000000	-0.276334	0.975268	-0.684668	-0.513180	1.297106	-0.727460	-0.453989	2.371266	-0.727460	-0.315822	2.371266	-0.599085	-0.256604	1.988766	-0.556293	-0.157897	1.510690	-0.513501	-1.973825	11.032423	-3.807920	0.000000	0.000000	8.303274	-4.829294	28.265391	-0.233646	-23.227455	42.114376	22.453834	55.028127	-4.253853	-3.659362	10.660991	-15.312394	131.549320	9.630154	35.619068	-7.112784	-4.007126
6.271186	9.757224	-5.348754	94.946362	0.191870	0.889870	0.562516	0.496759	4.055125	-10.939807	4.631174	0.080829	26.482154	14.057877	0.000000	0.752199	-6.527774	9.756818	0.647111	0.011294	26.903290	-3.466428	0.000000	-0.288392	0.996368	-0.689260	-0.535573	1.325169	-0.732339	-0.473800	2.422568	-0.732339	-0.329603	2.422568	-0.603103	-0.267801	2.031793	-0.560024	-0.164787	1.543373	-0.516945	-2.059957	11.271110	-3.833460	0.000000	0.000000	7.436561	-4.659699	27.558167	-0.467735	-23.349923	41.525881	22.326823	53.994019	-4.787547	-3.745810	10.340283	-16.102542	125.834212	9.512236	34.661289	-4.841584	-4.365420
6.288136	9.853170	-5.150226	94.994995	0.192174	0.889619	0.562490	0.356111	4.160773	-11.020812	4.860126	0.084825	26.600360	14.021855	0.000000	0.579687	-6.665822	9.631208	0.630688	0.011008	27.124781	-3.286614	0.000000	-0.304041	1.011167	-0.679324	-0.564635	1.344852	-0.721782	-0.499509	2.458551	-0.721782	-0.347489	2.458551	-0.594409	-0.282333	2.061972	-0.551951	-0.173729	1.566298	-0.509493	-2.171735	11.438523	-3.778198	0.000000	0.000000	6.630642	-4.423860	26.824216	-0.696720	-23.459475	41.029795	22.175507	53.344772	-5.370377	-3.808725	10.022274	-16.999206	119.809752	9.552590	33.164166	-2.709275	-4.967730
6.305085	9.911492	-4.959716	95.001384	0.192589	0.889416	0.562562	0.240643	4.219261	-11.207943	5.149608	0.089878	26.709620	14.115091	0.000000	0.408594	-6.768136	9.702595	0.620685	0.010833	27.223255	-3.479981	0.000000	-0.320588	1.020302	-0.656113	-0.595364	1.357001	-0.697120	-0.526694	2.480762	-0.697120	-0.366400	2.480762	-0.574099	-0.297698	2.080599	-0.533092	-0.183184	1.580448	-0.492084	-2.289930	11.541858	-3.649102	0.000000	0.000000	5.859840	-4.072085	26.155368	-0.961451	-23.545464	40.394463	22.030067	53.310530	-5.920227	-3.769834	9.736056	-17.940513	113.984031	9.694196	31.022956	-0.824196	-5.811619
6.322034	9.930142	-4.780924	94.973595	0.193102	0.889285	0.562704	0.144820	4.233933	-11.407586	5.479329	0.095632	26.772837	14.201157	0.000000	0.248702	-6.835767	9.756495	0.638200	0.011139	27.259515	-3.715599	0.000000	-0.337312	1.024024	-0.623434	-0.626422	1.361952	-0.662398	-0.554170	2.489811	-0.662398	-0.385514	2.489811	-0.545504	-0.313228	2.088189	-0.506540	-0.192740	1.586213	-0.467575	-2.409387	11.583962	-3.467350	0.000000	0.000000	5.098982	-3.576498	25.608810	-1.225646	-23.601671	39.813201	21.853667	53.665728	-6.410148	-3.636933	9.519178	-18.885205	108.649022	9.901632	28.650426	0.608701	-6.786879
6.338983	9.910915	-4.630023	94.895398	0.193681	0.889232	0.562904	0.081022	4.204106	-11.599753	5.829765	0.101749	26.776352	14.293239	0.000000	0.112455	-6.864780	9.760736	0.680243	0.011872	27.226942	-3.982980	0.000000	-0.352906	1.024288	-0.583014	-0.655382	1.362303	-0.619452	-0.579789	2.490453	-0.619452	-0.403336	2.490453	-0.510137	-0.327708	2.088727	-0.473699	-0.201650	1.586622	-0.437260	-2.520772	11.586946	-3.242549	0.000000	0.000000	4.308735	-2.906709	25.305877	-1.482714	-23.639108	39.292512	21.650580	54.323721	-6.824998	-3.397223	9.382091	-19.768266	104.151572	10.092400	26.202555	1.547664	-7.808337
6.355932	9.850191	-4.501871	94.804592	0.194302	0.889271	0.563169	0.033548	4.130360	-11.800319	6.169791	0.107683	26.721520	14.381916	0.000000	0.011629	-6.850399	9.754648	0.766679	0.013381	27.146278	-4.270882	0.000000	-0.368257	1.019809	-0.534892	-0.683890	1.356345	-0.568323	-0.605009	2.479562	-0.568323	-0.420881	2.479562	-0.468030	-0.341963	2.079594	-0.434600	-0.210422	1.579683	-0.401169	-2.630423	11.536278	-2.974908	0.000000	0.000000	3.488634	-2.061981	25.139404	-1.757348	-23.649214	38.794737	21.432997	55.185480	-7.164759	-3.062499	9.418998	-20.525905	101.003966	10.272581	24.046596	1.960043	-8.640171
6.372881	9.742907	-4.403820	94.628545	0.195045	0.889419	0.563414	0.011796	4.007387	-11.938225	6.504701	0.113528	26.621450	14.487063	0.000000	-0.071296	-6.786795	9.680148	0.875448	0.015279	27.020510	-4.591734	0.000000	-0.381234	1.011164	-0.479291	-0.707989	1.344847	-0.509247	-0.626329	2.458543	-0.509247	-0.435712	2.458543	-0.419380	-0.354014	2.061965	-0.389424	-0.217837	1.566292	-0.359468	-2.723113	11.438484	-2.665674	0.000000	0.000000	2.584348	-1.118907	25.206385	-2.019166	-23.627194	38.371243	21.185651	56.291577	-7.479018	-2.644926	9.587147	-21.175270	99.146674	10.473428	21.936754	1.809001	-9.363849
6.389831	9.599323	-4.332031	94.438002	0.195809	0.889660	0.563734	0.001483	3.848727	-12.079459	6.792270	0.118547	26.461662	14.579014	0.000000	-0.112140	-6.682124	9.608330	1.013670	0.017692	26.874417	-4.880602	0.000000	-0.394487	0.999059	-0.414564	-0.732601	1.328748	-0.440474	-0.648102	2.429112	-0.440474	-0.450859	2.429112	-0.362744	-0.366320	2.037281	-0.336833	-0.225410	1.547542	-0.310923	-2.817780	11.301553	-2.305682	0.000000	0.000000	1.653324	-0.067669	25.422776	-2.350578	-23.581229	37.735482	20.990493	57.281378	-7.681072	-2.157525	9.936756	-21.644909	98.925447	10.594800	20.192154	1.292733	-9.923434
6.406780	9.439182	-4.291283	94.194519	0.196631	0.889974	0.564050	0.010005	3.674635	-12.181078	7.043967	0.122940	26.255461	14.668071	0.000000	-0.123937	-6.557498	9.434967	1.157043	0.020194	26.757224	-5.044262	0.000000	-0.405252	0.985527	-0.348293	-0.752594	1.310751	-0.370061	-0.665789	2.396210	-0.370061	-0.463163	2.396210	-0.304757	-0.376317	2.009686	-0.282988	-0.231561	1.526581	-0.261220	-2.894678	11.148476	-1.937102	0.000000	0.000000	0.666449	1.017448	25.802501	-2.642162	-23.544197	37.421291	20.794626	57.764608	-7.844894	-1.751918	10.347605	-22.057591	98.579552	10.689175	20.191873	0.373399	-10.391491
